<svg width="256" height="256" viewBox="0 0 256 256" fill="none" xmlns="http://www.w3.org/2000/svg">
<rect width="256" height="256" rx="25" fill="#070709"/>
<path d="M221.08 60.9295L157.828 189.643C157.083 190.897 155.614 192.489 154.982 193.121C154.349 193.754 151.771 193.581 148.657 192.489L88.8837 146L211.276 62.1945L83.5073 134.615L37.0172 115.957C34.8596 114.221 34.3895 113.11 34.8034 110.897C35.7516 108.095 36.7872 107.136 39.231 106.153L211.276 55.5533C215.717 54.4474 217.718 54.2984 219.815 55.5533C221.305 57.1235 221.637 58.2803 221.08 60.9295Z" fill="white" stroke="white" stroke-width="0.1"/>
<path d="M106.22 169.801L78.7059 148.612C77.5704 156.755 76.4581 161.433 73.3295 169.801C70.3239 176.74 68.2049 181.039 62.5767 187.195C58.2421 192.804 54.9356 195.12 48.9775 200.161L106.22 169.801Z" fill="white" stroke="white" stroke-width="0.1"/>
</svg>
