<svg width="16" height="16" viewBox="0 0 16 16" fill="none" xmlns="http://www.w3.org/2000/svg">
<rect width="16" height="16" rx="3" fill="#070709"/>
<path d="M13.9837 4.22194L9.91748 12.4966C9.8696 12.5772 9.77517 12.6796 9.7345 12.7202C9.69384 12.7609 9.5281 12.7498 9.32789 12.6796L5.48535 9.69094L13.3534 4.30326L5.13972 8.95903L2.15108 7.75951C2.01238 7.6479 1.98216 7.57649 2.00877 7.43421C2.06972 7.25407 2.1363 7.19244 2.2934 7.12925L13.3534 3.87631C13.6389 3.80522 13.7676 3.79564 13.9023 3.87631C13.9981 3.97726 14.0195 4.05163 13.9837 4.22194Z" fill="white" stroke="white" stroke-width="0.1"/>
<path d="M6.59981 11.2206L4.83103 9.8584C4.75803 10.3819 4.68652 10.6826 4.4854 11.2206C4.29219 11.6666 4.15596 11.943 3.79415 12.3388C3.5155 12.6994 3.30294 12.8483 2.91992 13.1723L6.59981 11.2206Z" fill="white" stroke="white" stroke-width="0.1"/>
</svg>
