<svg width="501" height="119" viewBox="0 0 501 119" fill="none" xmlns="http://www.w3.org/2000/svg">
<path d="M123.494 4.63209L81.7608 89.5589C81.2694 90.3862 80.3002 91.4369 79.8828 91.8542C79.4655 92.2716 77.7644 92.1573 75.7095 91.4369L36.2718 60.7631L117.025 5.46675L32.7245 53.2511L2.05064 40.9399C0.62708 39.7944 0.316926 39.0615 0.589979 37.6012C1.21561 35.7523 1.89889 35.1198 3.5113 34.4712L117.025 1.08478C119.955 0.355092 121.276 0.2568 122.659 1.08478C123.643 2.12084 123.862 2.88414 123.494 4.63209Z" fill="#FEFEFE" stroke="#FEFEFE"/>
<path d="M50.6679 79.338L32.514 65.3574C31.7648 70.7304 31.0309 73.8165 28.9667 79.338C26.9836 83.9162 25.5855 86.7527 21.872 90.8146C19.0121 94.5157 16.8305 96.044 12.8994 99.3699L50.6679 79.338Z" fill="#FEFEFE" stroke="#FEFEFE"/>
<path d="M172.496 74.4332C157.4 74.4332 147.948 64.4372 147.948 48.5252C147.948 32.8172 157.944 22.4812 172.972 22.4812C185.552 22.4812 194.596 29.6892 196.16 40.9772H184.532C183.036 35.9452 178.752 33.0892 172.7 33.0892C164.54 33.0892 159.576 38.8692 159.576 48.4572C159.576 57.9092 164.608 63.8252 172.7 63.8252C178.888 63.8252 183.444 60.7652 184.804 55.8012H196.228C194.46 67.0212 185.076 74.4332 172.496 74.4332ZM213.267 74.5012C206.059 74.5012 201.571 70.2852 201.571 63.6212C201.571 57.3652 205.991 53.4892 214.151 52.8772L223.671 52.1292V51.5852C223.671 48.2532 221.631 46.4852 217.891 46.4852C213.471 46.4852 211.091 48.1852 211.091 51.2452H202.387C202.387 43.5612 208.711 38.5292 218.435 38.5292C228.295 38.5292 233.871 44.0372 233.871 53.7612V73.6172H224.623L223.943 69.1292C222.855 72.2572 218.367 74.5012 213.267 74.5012ZM216.939 66.7492C220.951 66.7492 223.739 64.7772 223.739 60.9012V59.0652L218.435 59.5412C213.879 59.9492 212.247 60.9692 212.247 63.1452C212.247 65.5932 213.743 66.7492 216.939 66.7492ZM253.214 73.6172H242.742V22.3452H253.214V73.6172ZM272.902 73.6172H262.43V22.3452H272.902V73.6172ZM294.29 73.6172L279.194 23.2972H290.686L297.282 45.1252C298.166 48.1172 298.982 51.1092 299.798 56.0732C300.614 51.1092 301.43 48.2532 302.314 45.1252L308.502 23.2972H320.81L326.726 45.1252C327.542 48.1852 328.358 51.2452 329.242 56.0732C330.262 50.9732 331.01 48.1852 331.894 45.2612L338.626 23.2972H349.846L334.478 73.6172H323.734L314.554 40.5692L305.102 73.6172H294.29ZM366.524 74.5012C356.256 74.5012 348.912 67.0212 348.912 56.5492C348.912 45.9412 356.052 38.5292 366.32 38.5292C376.996 38.5292 383.66 45.5332 383.66 56.6172V59.2692L358.976 59.4052C359.588 63.8932 362.104 66.0012 366.728 66.0012C370.672 66.0012 373.46 64.5732 374.208 62.1252H383.796C382.572 69.6732 375.84 74.5012 366.524 74.5012ZM366.388 47.0292C362.24 47.0292 359.928 48.8652 359.112 52.9452H373.256C373.256 49.3412 370.604 47.0292 366.388 47.0292ZM401.693 73.6172H391.221V22.3452H401.693V73.6172ZM421.381 73.6172H410.909V22.3452H421.381V73.6172Z" fill="#FEFEFE"/>
</svg>
