<svg width="395" height="92" viewBox="0 0 395 92" fill="none" xmlns="http://www.w3.org/2000/svg">
<path d="M97.4192 10.2561L64.5335 77.1784C64.1463 77.8303 63.3825 78.6583 63.0537 78.9871C62.7248 79.316 61.3843 79.226 59.7651 78.6583L28.6882 54.4873L92.3219 10.9138L25.8929 48.5679L1.7219 38.8666C0.600139 37.964 0.355738 37.3864 0.570903 36.2358C1.0639 34.7788 1.60232 34.2804 2.8729 33.7693L92.3219 7.46081C94.6308 6.88581 95.6714 6.80836 96.7615 7.46081C97.5363 8.27722 97.7089 8.8787 97.4192 10.2561Z" fill="#080709" stroke="black"/>
<path d="M40.032 69.1241L25.7268 58.1074C25.1364 62.3413 24.5581 64.7732 22.9315 69.1241C21.3689 72.7318 20.2671 74.9669 17.3409 78.1677C15.0873 81.0841 13.3682 82.2884 10.2705 84.9092L40.032 69.1241Z" fill="#080709" stroke="black"/>
<path d="M141.496 72.816C126.4 72.816 116.948 62.82 116.948 46.908C116.948 31.2 126.944 20.864 141.972 20.864C154.552 20.864 163.596 28.072 165.16 39.36H153.532C152.036 34.328 147.752 31.472 141.7 31.472C133.54 31.472 128.576 37.252 128.576 46.84C128.576 56.292 133.608 62.208 141.7 62.208C147.888 62.208 152.444 59.148 153.804 54.184H165.228C163.46 65.404 154.076 72.816 141.496 72.816ZM182.267 72.884C175.059 72.884 170.571 68.668 170.571 62.004C170.571 55.748 174.991 51.872 183.151 51.26L192.671 50.512V49.968C192.671 46.636 190.631 44.868 186.891 44.868C182.471 44.868 180.091 46.568 180.091 49.628H171.387C171.387 41.944 177.711 36.912 187.435 36.912C197.295 36.912 202.871 42.42 202.871 52.144V72H193.623L192.943 67.512C191.855 70.64 187.367 72.884 182.267 72.884ZM185.939 65.132C189.951 65.132 192.739 63.16 192.739 59.284V57.448L187.435 57.924C182.879 58.332 181.247 59.352 181.247 61.528C181.247 63.976 182.743 65.132 185.939 65.132ZM222.214 72H211.742V20.728H222.214V72ZM241.902 72H231.43V20.728H241.902V72ZM263.29 72L248.194 21.68H259.686L266.282 43.508C267.166 46.5 267.982 49.492 268.798 54.456C269.614 49.492 270.43 46.636 271.314 43.508L277.502 21.68H289.81L295.726 43.508C296.542 46.568 297.358 49.628 298.242 54.456C299.262 49.356 300.01 46.568 300.894 43.644L307.626 21.68H318.846L303.478 72H292.734L283.554 38.952L274.102 72H263.29ZM335.524 72.884C325.256 72.884 317.912 65.404 317.912 54.932C317.912 44.324 325.052 36.912 335.32 36.912C345.996 36.912 352.66 43.916 352.66 55V57.652L327.976 57.788C328.588 62.276 331.104 64.384 335.728 64.384C339.672 64.384 342.46 62.956 343.208 60.508H352.796C351.572 68.056 344.84 72.884 335.524 72.884ZM335.388 45.412C331.24 45.412 328.928 47.248 328.112 51.328H342.256C342.256 47.724 339.604 45.412 335.388 45.412ZM370.693 72H360.221V20.728H370.693V72ZM390.381 72H379.909V20.728H390.381V72Z" fill="black"/>
</svg>
